<?xml version="1.0" encoding="UTF-8"?>
<svg width="307px" height="283px" viewBox="0 0 307 283" version="1.1" xmlns="http://www.w3.org/2000/svg" xmlns:xlink="http://www.w3.org/1999/xlink">
    <!-- Generator: Sketch 43.2 (39069) - http://www.bohemiancoding.com/sketch -->
    <title>Group 7</title>
    <desc>Created with Sketch.</desc>
    <defs></defs>
    <g id="Page-1" stroke="none" stroke-width="1" fill="none" fill-rule="evenodd">
        <g id="Artboard" transform="translate(-697.000000, -362.000000)" stroke="#FFFFFF">
            <g id="Group-7" transform="translate(694.000000, 339.000000)">
                <path d="M309.355469,278.003906 C309.355469,278.003906 248.244586,280.580084 227.345703,265.193359 C206.44682,249.806635 186.633789,191.345703 174.271484,178.548828 C161.90918,165.751953 119.680664,144.542969 112.275391,144.542969 C104.870117,144.542969 94.0825731,151.144872 80.6953125,162.96875 C67.3080519,174.792628 56.5760962,193.764919 55.9199219,195.169922 C54.6542969,197.879883 56.5687051,200.804427 59.0058594,202.705078 C61.4430136,204.60573 64.9951172,206.047852 68.0839844,204.65625 C71.1728516,203.264648 91.972168,184.591309 92.7441406,180.683594 C93.5161133,176.775879 90.3574219,170.058594 90.3574219,170.058594" id="Path-6"></path>
                <path d="M56.9121094,194.073242 C56.9121094,194.073242 59.0712891,196.475586 62.6513672,194.140625 C66.2314453,191.805664 67.8242188,177.438965 67.8242188,177.438965" id="Path-7"></path>
                <path d="M105.535156,181.155273 C105.535156,181.155273 117.674805,191.171875 123.052734,191.171875 C125.943914,191.171875 130.454466,185.790047 135.050781,182.44043 C139.647097,179.090812 143.314453,178.639648 143.314453,178.639648" id="Path-8"></path>
                <path d="M65.6225586,242 L70.2597656,234.095703 C70.2597656,234.095703 68.4135742,223.634766 66.6884766,223.634766 C64.9633789,223.634766 59.9418945,228.35376 59.9418945,228.35376" id="Path-17"></path>
                <path d="M78.75,248.183594 C78.75,248.183594 75.734375,251.573242 78.7978516,260.817383 C81.8613281,270.061523 105.853091,281.378817 111.570313,282.625977 C117.287534,283.873136 119.453662,276.105469 121.174805,270.061523 C121.910764,267.477135 119.29466,261.884446 116,257.935547 C112.70534,253.986648 109.817383,254.109079 106.003906,249.197266 C102.19043,244.285452 99.75,225.458984 99.75,225.458984" id="Path-18"></path>
                <path d="M95.3857422,275.271484 C95.3857422,275.271484 92.3186494,262.866565 97.2236328,260.00293 C102.128616,257.139295 111.460938,262.266317 111.460938,267.443359 C111.460938,272.620401 109.972656,281.769531 109.972656,281.769531" id="Path-19"></path>
                <path d="M95.4277344,275.751953 C95.4277344,275.751953 95.640625,283.50293 100.986328,290.557617 C106.332031,297.612305 124.288325,303.863118 130.703125,304.518555 C137.117925,305.173991 138.81358,298.312161 139.561523,293.480469 C140.309467,288.648776 136.409247,286.020596 133.959961,283.479492 C131.510675,280.938388 120.779297,273.994141 120.779297,273.994141" id="Path-20"></path>
                <path d="M116.132813,293.274414 C113.821342,289.826512 117.293945,284.165039 120.138672,284.165039 C122.983398,284.165039 131.498979,287.1726 133.81543,290.62793 C136.13188,294.083259 133.81543,300.539062 130.822266,300.539062 C127.829102,300.539062 118.444283,296.722316 116.132813,293.274414 Z" id="Path-21"></path>
                <path d="M124.540527,276.200684 C124.540527,276.200684 128.693692,274.928719 129.857422,273.694336 C131.021152,272.459953 132.318678,269.236971 133.75,267.71875" id="Path-22"></path>
                <g id="Group-6" transform="translate(3.000000, 50.000000)">
                    <path d="M227.53807,10.777223 L232.023422,-1.33410512" id="Path-4" transform="translate(229.780746, 4.721559) rotate(113.000000) translate(-229.780746, -4.721559) "></path>
                    <path d="M222.495873,15.1391863 L226.981225,3.02785814" id="Path-4" transform="translate(224.738549, 9.083522) rotate(113.000000) translate(-224.738549, -9.083522) "></path>
                    <path d="M218.701208,18.9602483 L223.18656,6.84892015" id="Path-4" transform="translate(220.943884, 12.904584) rotate(113.000000) translate(-220.943884, -12.904584) "></path>
                    <path d="M5.47216797,225.150879 L0.909179688,219.659668 L70.3398438,151.844238 C70.3398438,151.844238 69.9977156,156.323835 70.3398438,157.961426 C70.6819719,159.599017 71.6801758,162.104004 71.6801758,162.104004 L5.47216797,225.150879 Z" id="thing"></path>
                </g>
                <g id="Group-5" transform="translate(181.807462, 198.726159) rotate(123.000000) translate(-181.807462, -198.726159) translate(15.307462, 91.226159)">
                    <polygon id="intersect" transform="translate(100.194524, 107.684372) rotate(238.000000) translate(-100.194524, -107.684372) " points="12.9397191 163.720882 20.2344175 170.191237 187.449328 56.7683551 179.963673 45.1775059"></polygon>
                    <path d="M40,87.5483398 L44.4853516,75.4370117" id="Path-4"></path>
                    <path d="M46,90.5483398 L50.4853516,78.4370117" id="Path-4"></path>
                    <path d="M51,92.5483398 L55.4853516,80.4370117" id="Path-4"></path>
                    <polygon id="Path-16" points="332.611419 202.466457 329.568298 208.040399 237.139219 169.409291 231.972709 157.935607"></polygon>
                </g>
                <path d="M159.037109,300.154297 C159.037109,300.154297 147.91135,291.179083 139.71582,278.317383 C131.520291,265.455683 129.85521,254.579199 126.396484,247.825195 C118.564453,232.53125 110.200195,227.725586 106.612305,226.556641 C103.024414,225.387695 94.1252001,225.494432 88.6083984,222.751953 C83.0915968,220.009474 76.1234868,213.820656 73.7900391,210.240234 C71.4565913,206.659813 74.0839844,200.46582 74.0839844,200.46582 L82.6923828,192.125 C82.6923828,192.125 105.193359,192.125 120.53418,193.475586 C127.229528,194.065036 135.155273,204.401367 146.408203,212.463867 C157.661133,220.526367 171.180664,227.987305 171.180664,227.987305" id="Path-9"></path>
                <path d="M106.054687,213.758789 C106.054687,213.758789 104.955479,208.408126 106.054688,205.804199 C107.153896,203.200273 112.770508,197.849609 112.770508,197.849609" id="Path-10"></path>
                <path d="M110.078125,217.314453 C110.078125,217.314453 111.259142,211.486823 113.259766,208.240723 C115.260389,204.994623 121.262695,199.166992 121.262695,199.166992" id="Path-11"></path>
                <path d="M117.131836,216.463867 C117.131836,216.463867 120.763477,215.517746 122.947266,212.614258 C125.131054,209.71077 125.855469,204.865234 125.855469,204.865234" id="Path-12"></path>
                <path d="M139.541016,206.4375 C139.541016,206.4375 143.766749,199.34948 146.293945,197.204102 C148.821142,195.058724 157.380859,191.292969 157.380859,191.292969" id="Path-14"></path>
                <path d="M91.4316406,212.983398 C91.4316406,212.983398 90.3476455,206.62629 91.4316406,204.114511 C92.5156357,201.602731 97.3427734,199.228516 97.3427734,196.530273 C97.3427734,193.832031 81.9628906,194.769531 81.9628906,194.769531 C81.9628906,194.769531 76.7718552,197.302776 75.53125,199.228516 C74.2906448,201.154256 73.2480469,205.835938 73.2480469,205.835938 C73.2480469,205.835938 75.53125,211.557617 81.9628906,212.983398 C88.3945313,214.40918 91.4316406,212.983398 91.4316406,212.983398 Z" id="Path-13"></path>
                <path d="M58.6308594,216.101562 L73.7744141,201.084961" id="Path-15"></path>
                <path d="M57.2338867,200.615723 L58.6240234,215.769531" id="Path-5"></path>
                <polygon id="Path-23" points="82.9365234 192.016357 255.1875 24.0058594 264.194336 33.2382812 95.8439941 192.296631"></polygon>
                <path d="M67.7893066,249.590088 C67.7893066,249.590088 71.9279785,250.54541 75.5556641,248.998779 C77.3378011,248.238981 80.0181234,246.079567 82,243.724121 C83.9818766,241.368675 85.4890137,238.194336 85.4890137,238.194336" id="Path-24"></path>
                <path d="M85.6477051,228.151367 L84.7219238,220.310547" id="Path-25"></path>
                <path d="M59.6069336,227.127441 C59.6069336,227.127441 60.6728516,242.98291 62.0302734,244.515625" id="Path-3"></path>
            </g>
        </g>
    </g>
</svg>