<?xml version="1.0" encoding="UTF-8"?>
<svg width="307px" height="283px" viewBox="0 0 307 283" version="1.1" xmlns="http://www.w3.org/2000/svg" xmlns:xlink="http://www.w3.org/1999/xlink">
    <!-- Generator: Sketch 43.2 (39069) - http://www.bohemiancoding.com/sketch -->
    <title>Group 7</title>
    <desc>Created with Sketch.</desc>
    <defs></defs>
    <g id="Page-1" stroke="none" stroke-width="1" fill="none" fill-rule="evenodd">
        <g id="Artboard" transform="translate(-697.000000, -362.000000)">
            <g id="Group-7" transform="translate(694.000000, 309.000000)">
                <path d="M309.355469,308.003906 C309.355469,308.003906 248.244586,310.580084 227.345703,295.193359 C206.44682,279.806635 186.633789,221.345703 174.271484,208.548828 C161.90918,195.751953 119.680664,174.542969 112.275391,174.542969 C104.870117,174.542969 94.0825731,181.144872 80.6953125,192.96875 C67.3080519,204.792628 56.5760962,223.764919 55.9199219,225.169922 C54.6542969,227.879883 56.5687051,230.804427 59.0058594,232.705078 C61.4430136,234.60573 64.9951172,236.047852 68.0839844,234.65625 C71.1728516,233.264648 91.972168,214.591309 92.7441406,210.683594 C93.5161133,206.775879 90.3574219,200.058594 90.3574219,200.058594" id="Path-6" stroke="#0F1B20"></path>
                <path d="M56.9121094,224.073242 C56.9121094,224.073242 59.0712891,226.475586 62.6513672,224.140625 C66.2314453,221.805664 67.8242188,207.438965 67.8242188,207.438965" id="Path-7" stroke="#0F1B20"></path>
                <path d="M105.535156,211.155273 C105.535156,211.155273 117.674805,221.171875 123.052734,221.171875 C125.943914,221.171875 130.454466,215.790047 135.050781,212.44043 C139.647097,209.090812 143.314453,208.639648 143.314453,208.639648" id="Path-8" stroke="#0F1B20"></path>
                <path d="M59.605957,256.636719 C59.605957,256.636719 61.5413708,273.514188 62.3398438,275.230469 C64.4426733,279.750404 66.5009766,279.726562 71.7119141,279.726562 C76.9228516,279.726563 82.5888672,273.994141 84.7373047,269.962891 C86.8857422,265.931641 84.7373047,250.149414 84.7373047,250.149414" id="finger" stroke="#0F1B20"></path>
                <path d="M85.4301758,268.226562 C85.4301758,268.226562 85.7373047,264.759766 85.7373047,263.070312 C85.7373047,261.380859 85.4301758,258.019531 85.4301758,258.019531" id="inter" stroke="#979797"></path>
                <path d="M63.1513672,276.056641 L70.2597656,264.095703 C70.2597656,264.095703 68.4135742,253.634766 66.6884766,253.634766 C64.9633789,253.634766 59.6669922,258.65625 59.6669922,258.65625" id="Path-17" stroke="#0F1B20"></path>
                <path d="M78.75,278.183594 C78.75,278.183594 75.734375,281.573242 78.7978516,290.817383 C81.8613281,300.061523 105.853091,311.378817 111.570313,312.625977 C117.287534,313.873136 119.453662,306.105469 121.174805,300.061523 C121.910764,297.477135 119.29466,291.884446 116,287.935547 C112.70534,283.986648 109.817383,284.109079 106.003906,279.197266 C102.19043,274.285452 99.75,255.458984 99.75,255.458984" id="Path-18" stroke="#0F1B20"></path>
                <path d="M95.3857422,305.271484 C95.3857422,305.271484 92.3186494,292.866565 97.2236328,290.00293 C102.128616,287.139295 111.460938,292.266317 111.460938,297.443359 C111.460938,302.620401 109.972656,311.769531 109.972656,311.769531" id="Path-19" stroke="#0F1B20"></path>
                <path d="M95.4277344,305.751953 C95.4277344,305.751953 95.640625,313.50293 100.986328,320.557617 C106.332031,327.612305 124.288325,333.863118 130.703125,334.518555 C137.117925,335.173991 138.81358,328.312161 139.561523,323.480469 C140.309467,318.648776 136.409247,316.020596 133.959961,313.479492 C131.510675,310.938388 120.779297,303.994141 120.779297,303.994141" id="Path-20" stroke="#0F1B20"></path>
                <path d="M116.132813,323.274414 C113.821342,319.826512 117.293945,314.165039 120.138672,314.165039 C122.983398,314.165039 131.498979,317.1726 133.81543,320.62793 C136.13188,324.083259 133.81543,330.539062 130.822266,330.539062 C127.829102,330.539062 118.444283,326.722316 116.132813,323.274414 Z" id="Path-21" stroke="#0F1B20"></path>
                <path d="M124.540527,306.200684 C124.540527,306.200684 128.693692,304.928719 129.857422,303.694336 C131.021152,302.459953 132.318678,299.236971 133.75,297.71875" id="Path-22" stroke="#0F1B20"></path>
                <g id="Group-6" transform="translate(2.000000, 0.000000)" stroke="#0F1B20">
                    <polygon id="Combined-Shape" transform="translate(132.446570, 180.501777) rotate(113.000000) translate(-132.446570, -180.501777) " points="-31.399133 118.802558 -26.196008 106.853339 296.292273 247.888496 293.124304 254.150214"></polygon>
                    <path d="M228.53807,90.777223 L233.023422,78.6658949" id="Path-4" transform="translate(230.780746, 84.721559) rotate(113.000000) translate(-230.780746, -84.721559) "></path>
                    <path d="M223.495873,95.1391863 L227.981225,83.0278581" id="Path-4" transform="translate(225.738549, 89.083522) rotate(113.000000) translate(-225.738549, -89.083522) "></path>
                    <path d="M219.701208,98.9602483 L224.18656,86.8489202" id="Path-4" transform="translate(221.943884, 92.904584) rotate(113.000000) translate(-221.943884, -92.904584) "></path>
                </g>
                <g id="Group-5" transform="translate(181.807462, 228.726159) rotate(123.000000) translate(-181.807462, -228.726159) translate(15.307462, 121.226159)" stroke="#0F1B20">
                    <polygon id="Combined-Shape" points="5 72.9492188 10.203125 61 332.691406 202.035156 329.523438 208.296875"></polygon>
                    <polygon id="intersect" transform="translate(100.194524, 107.684372) rotate(238.000000) translate(-100.194524, -107.684372) " points="12.9397191 163.720882 20.2344175 170.191237 187.449328 56.7683551 179.963673 45.1775059"></polygon>
                    <path d="M40,87.5483398 L44.4853516,75.4370117" id="Path-4"></path>
                    <path d="M46,90.5483398 L50.4853516,78.4370117" id="Path-4"></path>
                    <path d="M51,92.5483398 L55.4853516,80.4370117" id="Path-4"></path>
                </g>
                <path d="M159.037109,330.154297 C159.037109,330.154297 147.91135,321.179083 139.71582,308.317383 C131.520291,295.455683 129.85521,284.579199 126.396484,277.825195 C118.564453,262.53125 110.200195,257.725586 106.612305,256.556641 C103.024414,255.387695 94.1252001,255.494432 88.6083984,252.751953 C83.0915968,250.009474 76.1234868,243.820656 73.7900391,240.240234 C71.4565913,236.659813 74.0839844,230.46582 74.0839844,230.46582 L82.6923828,222.125 C82.6923828,222.125 105.193359,222.125 120.53418,223.475586 C127.229528,224.065036 135.155273,234.401367 146.408203,242.463867 C157.661133,250.526367 171.180664,257.987305 171.180664,257.987305" id="Path-9" stroke="#0F1B20" fill="#FFFFFF"></path>
                <path d="M106.054687,243.758789 C106.054687,243.758789 104.955479,238.408126 106.054688,235.804199 C107.153896,233.200273 112.770508,227.849609 112.770508,227.849609" id="Path-10" stroke="#0F1B20"></path>
                <path d="M110.078125,247.314453 C110.078125,247.314453 111.259142,241.486823 113.259766,238.240723 C115.260389,234.994623 121.262695,229.166992 121.262695,229.166992" id="Path-11" stroke="#0F1B20"></path>
                <path d="M117.131836,246.463867 C117.131836,246.463867 120.763477,245.517746 122.947266,242.614258 C125.131054,239.71077 125.855469,234.865234 125.855469,234.865234" id="Path-12" stroke="#0F1B20"></path>
                <path d="M139.541016,236.4375 C139.541016,236.4375 143.766749,229.34948 146.293945,227.204102 C148.821142,225.058724 157.380859,221.292969 157.380859,221.292969" id="Path-14" stroke="#0F1B20"></path>
                <path d="M91.4316406,242.983398 C91.4316406,242.983398 90.3476455,236.62629 91.4316406,234.114511 C92.5156357,231.602731 97.3427734,229.228516 97.3427734,226.530273 C97.3427734,223.832031 81.9628906,224.769531 81.9628906,224.769531 C81.9628906,224.769531 76.7718552,227.302776 75.53125,229.228516 C74.2906448,231.154256 73.2480469,235.835938 73.2480469,235.835938 C73.2480469,235.835938 75.53125,241.557617 81.9628906,242.983398 C88.3945313,244.40918 91.4316406,242.983398 91.4316406,242.983398 Z" id="Path-13" stroke="#0F1B20" fill="#FFFFFF"></path>
                <path d="M58.6308594,246.101562 L73.7744141,231.084961" id="Path-15" stroke="#0F1B20"></path>
                <path d="M57.2338867,230.615723 L58.6240234,245.769531" id="Path-5" stroke="#0F1B20"></path>
            </g>
        </g>
    </g>
</svg>